<svg xmlns="http://www.w3.org/2000/svg" width="47" height="38" viewBox="0 0 47 38">
    <g fill="none" fill-rule="evenodd">
        <g fill="#3187F3" fill-rule="nonzero">
            <path d="M17.647.383L18.827 0l2.446 4.448-1.074.777c-3.453 2.498-5.727 6.266-6.357 10.427l-.055.392-.014.124.253.045c4.284.816 7.524 4.443 7.77 9.408l.01.306.004.303c0 6.538-5.105 10.63-11.29 10.63C4.413 36.86 0 32.845 0 25.9 0 15.896 8.37 3.617 17.334.488l.313-.105zm24.2 0L43.027 0l2.446 4.448-1.074.777c-3.453 2.498-5.727 6.266-6.357 10.427l-.055.392-.014.124.253.045c4.284.816 7.524 4.443 7.77 9.408l.01.306.004.303c0 6.538-5.105 10.63-11.29 10.63-6.107 0-10.52-4.015-10.52-10.96 0-10.004 8.37-22.283 17.334-25.412l.313-.105zM17.205 3.769l-.094.043C9.819 7.174 3 17.602 3 25.9c0 5.221 3.01 7.96 7.52 7.96 4.656 0 8.29-2.913 8.29-7.63 0-4.227-2.806-7.07-6.409-7.187l-.231-.003h-1.542l.043-1.542c.143-5.172 2.41-10.024 6.213-13.446l.321-.283zm24.2 0l-.094.043C34.019 7.174 27.2 17.602 27.2 25.9c0 5.221 3.01 7.96 7.52 7.96 4.656 0 8.29-2.913 8.29-7.63 0-4.227-2.806-7.07-6.409-7.187l-.231-.003h-1.542l.043-1.542c.143-5.172 2.41-10.024 6.213-13.446l.321-.283z" transform="translate(-1275.000000, -2019.000000) translate(0.000000, 1507.000000) translate(1298.505000, 530.929864) scale(-1, -1) translate(-1298.505000, -530.929864) translate(1275.500000, 512.500000)"/>
        </g>
    </g>
</svg>
