<svg xmlns="http://www.w3.org/2000/svg" width="64" height="64" viewBox="0 0 64 64">
    <g fill="none" fill-rule="evenodd">
        <g fill="#FFF">
            <g>
                <path d="M32 0c17.673 0 32 14.327 32 32 0 17.673-14.327 32-32 32C14.327 64 0 49.673 0 32 0 14.327 14.327 0 32 0zm0 4c-3.782 0-7.448.74-10.898 2.199-3.333 1.41-6.328 3.43-8.901 6.002-2.573 2.573-4.592 5.568-6.002 8.901C4.739 24.552 4 28.218 4 32s.74 7.448 2.199 10.898c1.41 3.333 3.43 6.328 6.002 8.901 2.573 2.573 5.568 4.592 8.901 6.002C24.552 59.261 28.218 60 32 60s7.448-.74 10.898-2.199c3.333-1.41 6.328-3.43 8.901-6.002 2.573-2.573 4.592-5.568 6.002-8.901C59.261 39.448 60 35.782 60 32s-.74-7.448-2.199-10.898c-1.41-3.333-3.43-6.328-6.002-8.901-2.573-2.573-5.568-4.592-8.901-6.002C39.448 4.739 35.782 4 32 4zm-4.743 14.666l17.734 11.318c.796.455 1.194 1.256 1.194 2.058 0 .8-.398 1.602-1.194 2.057L27.257 45.417c-1.58.903-3.545-.238-3.545-2.057V20.723c0-1.82 1.965-2.96 3.545-2.057zm.455 5.035v16.68l13.068-8.34-13.068-8.34z" transform="translate(-688.000000, -8023.000000) translate(270.000000, 7647.000000) translate(0.000000, 158.000000) translate(418.000000, 218.000000)"/>
            </g>
        </g>
    </g>
</svg>
