<svg xmlns="http://www.w3.org/2000/svg" width="21" height="20" viewBox="0 0 21 20">
    <g fill="none" fill-rule="evenodd">
        <g fill="#F0B620">
            <g>
                <g>
                    <path d="M15.015 5.8l4.509.65c1.278.185 1.79 1.755.867 2.658l-3.259 3.183c-.366.358-.533.874-.446 1.38l.775 4.489c.22 1.272-1.115 2.245-2.259 1.645l-4.035-2.114c-.454-.239-.996-.238-1.45.001l-4.03 2.125c-1.142.602-2.48-.367-2.263-1.64l.765-4.491c.086-.506-.082-1.022-.45-1.38L.474 9.132c-.926-.9-.418-2.472.86-2.659l4.507-.66c.508-.075.946-.394 1.173-.854L9.025.87c.57-1.159 2.222-1.16 2.795-.003l2.02 4.083c.228.46.667.778 1.175.85" transform="translate(-210.000000, -2043.000000) translate(0.000000, 1507.000000) translate(120.000000, 500.000000) translate(90.000000, 36.000000) translate(-0.000000, 0.000000)"/>
                </g>
            </g>
        </g>
    </g>
</svg>
